<svg width="1440" height="952" viewBox="0 0 1440 952" fill="none" xmlns="http://www.w3.org/2000/svg">
<path d="M118.5 713C-35.9001 639.4 -33.1667 319 -12.5001 168V149.5L-45 -158.5L1413 -138L1631.5 -4.5C1619.33 145 1565.1 468.8 1445.5 568C1296 692 1314.5 669.5 1070.5 881C875.3 1050.2 625.833 873.167 525.5 763.5C454.167 777.333 272.9 786.6 118.5 713Z" fill="#5BBDC8" stroke="#5BBDC8"/>
<path d="M115.5 607.5C-38.9001 533.9 -36.1667 213.5 -15.5001 62.5V44L-48 -264L1410 -243.5L1628.5 -110C1616.33 39.5 1562.1 363.3 1442.5 462.5C1293 586.5 1311.5 564 1067.5 775.5C872.3 944.7 622.833 767.667 522.5 658C451.167 671.833 269.9 681.1 115.5 607.5Z" fill="#61CEDA" stroke="#5BBDC8"/>
</svg>
