<svg width="1229" height="328" viewBox="0 0 1229 328" fill="none" xmlns="http://www.w3.org/2000/svg">
<path d="M212.668 65.16C210.248 88.7 195.508 106.3 168.448 117.96C162.068 120.6 155.578 122.58 148.978 123.9C183.298 130.28 200.458 146.56 200.458 172.74C200.458 194.96 188.578 213.66 164.818 228.84C141.278 244.02 112.018 251.61 77.0379 251.61C59.8779 251.61 45.5779 248.97 34.1379 243.69C22.6979 238.19 16.9779 229.17 16.9779 216.63C16.9779 201.23 25.1179 174.39 41.3979 136.11C57.6779 97.83 72.7479 65.16 86.6079 38.1C88.8079 33.7 90.4579 30.62 91.5579 28.86L79.6779 30.51C62.5179 32.93 46.6779 37 32.1579 42.72C17.8579 48.44 8.17785 55.59 3.11785 64.17C2.89785 64.83 2.34785 65.16 1.46785 65.16C0.587851 65.16 0.147851 64.61 0.147851 63.51C0.147851 62.19 0.257851 61.31 0.477851 60.87C8.83785 37.99 24.1279 24.02 46.3479 18.96C56.4679 16.76 69.9979 15.66 86.9379 15.66H151.948C171.968 15.66 187.038 19.95 197.158 28.53C207.498 37.11 212.668 47.89 212.668 60.87V65.16ZM178.348 56.58C176.368 37.22 161.078 26.88 132.478 25.56C122.138 38.98 108.498 64.17 91.5579 101.13C74.6179 138.09 63.8379 164.82 59.2179 181.32C54.5979 197.6 52.2879 210.03 52.2879 218.61C52.2879 226.97 54.7079 232.47 59.5479 235.11C64.3879 237.53 72.4179 238.74 83.6379 238.74C104.538 238.74 122.798 233.13 138.418 221.91C154.038 210.47 161.848 193.53 161.848 171.09C161.848 160.09 159.098 150.63 153.598 142.71C148.318 134.79 140.508 130.17 130.168 128.85C116.528 132.59 103.328 134.46 90.5679 134.46C86.8279 134.46 84.9579 133.69 84.9579 132.15C84.9579 127.09 88.3679 123.68 95.1879 121.92C102.008 119.94 108.498 118.95 114.658 118.95C120.818 118.95 126.868 119.39 132.808 120.27C147.108 115.87 158.218 107.95 166.138 96.51C174.278 85.07 178.348 73.19 178.348 60.87V56.58ZM301.794 113.34L318.624 113.67H321.924C318.624 116.09 313.894 123.24 307.734 135.12C301.794 147 297.284 156.02 294.204 162.18C291.344 168.12 288.044 176.26 284.304 186.6C280.784 196.72 279.024 204.97 279.024 211.35C279.024 217.73 281.224 220.92 285.624 220.92C288.484 220.7 292.444 218.72 297.504 214.98C302.784 211.02 307.074 206.95 310.374 202.77C313.894 198.37 317.634 192.87 321.594 186.27C325.774 179.45 329.294 173.62 332.154 168.78C335.234 163.72 336.994 161.19 337.434 161.19C338.974 161.19 339.744 163.28 339.744 167.46C339.744 171.42 338.644 175.27 336.444 179.01C326.984 194.63 319.174 206.62 313.014 214.98C306.854 223.34 299.374 231.04 290.574 238.08C281.994 244.9 274.184 248.31 267.144 248.31C254.604 248.31 248.334 239.07 248.334 220.59C248.334 208.05 250.754 193.86 255.594 178.02C260.434 162.18 267.584 146.89 277.044 132.15C269.344 138.31 261.644 141.39 253.944 141.39C251.524 141.39 248.994 140.84 246.354 139.74C230.734 170.54 222.264 185.94 220.944 185.94C219.844 185.94 219.294 184.18 219.294 180.66C219.294 176.92 220.614 171.86 223.254 165.48C226.114 158.88 229.084 152.61 232.164 146.67C235.464 140.73 237.224 137.43 237.444 136.77C229.524 132.81 225.564 126.43 225.564 117.63C225.564 113.23 226.884 109.27 229.524 105.75C232.384 102.23 236.234 100.47 241.074 100.47C245.914 100.47 249.874 102.01 252.954 105.09C252.514 106.41 252.294 108.39 252.294 111.03C252.294 116.97 254.384 121.7 258.564 125.22C262.964 128.52 268.244 130.17 274.404 130.17C276.164 130.17 277.484 130.06 278.364 129.84C286.064 118.84 293.874 113.34 301.794 113.34ZM456.213 160.2C457.533 160.2 458.193 162.4 458.193 166.8C458.193 170.98 456.433 176.04 452.913 181.98C449.393 187.92 445.873 193.53 442.353 198.81C439.053 204.09 434.543 210.25 428.823 217.29C423.103 224.33 417.493 229.94 411.993 234.12C398.133 244.24 384.163 249.3 370.083 249.3C356.223 249.3 345.003 245.78 336.423 238.74C327.843 231.48 323.553 220.48 323.553 205.74C323.553 183.3 331.803 162.51 348.303 143.37C364.803 124.23 384.053 114.66 406.053 114.66C415.953 114.66 423.873 117.3 429.813 122.58C435.753 127.64 438.723 133.8 438.723 141.06C438.723 153.38 432.893 163.28 421.233 170.76C409.573 178.24 395.823 181.98 379.983 181.98C370.743 181.98 363.923 180.77 359.523 178.35C355.343 189.57 353.253 199.47 353.253 208.05C353.253 226.53 361.063 235.77 376.683 235.77C385.923 235.77 395.383 232.25 405.063 225.21C414.963 217.95 423.323 209.92 430.143 201.12C437.183 192.1 445.103 179.23 453.903 162.51C454.783 160.97 455.553 160.2 456.213 160.2ZM421.233 134.13C421.233 127.75 418.153 124.56 411.993 124.56C403.413 124.56 393.843 129.84 383.283 140.4C372.723 150.96 367.443 159.54 367.443 166.14C367.443 170.54 371.623 172.74 379.983 172.74C388.343 172.74 397.033 168.67 406.053 160.53C415.293 152.39 420.353 143.59 421.233 134.13ZM577.454 114L593.955 114.33H597.254C589.994 120.27 581.085 135.34 570.525 159.54C559.964 183.52 554.684 201.01 554.684 212.01C554.684 217.73 556.664 220.59 560.624 220.59C573.384 220.59 589.665 201.78 609.465 164.16C610.344 162.62 611.114 161.85 611.775 161.85C613.094 161.85 613.754 163.94 613.754 168.12C613.754 172.08 612.654 175.93 610.454 179.67C583.394 225.21 560.734 247.98 542.474 247.98C530.594 247.98 524.655 238.85 524.655 220.59C524.655 206.95 526.965 193.53 531.585 180.33C506.504 224.77 483.294 246.99 461.954 246.99C447.214 246.99 439.844 236.87 439.844 216.63C439.844 201.23 443.144 185.61 449.744 169.77C456.564 153.93 466.244 140.51 478.784 129.51C491.324 118.29 505.074 112.68 520.035 112.68C527.074 112.68 533.674 114.33 539.835 117.63C545.995 120.71 550.065 125.77 552.045 132.81C554.464 127.75 558.204 123.35 563.264 119.61C568.324 115.87 573.054 114 577.454 114ZM550.064 135.78C547.865 128.74 542.695 125.22 534.555 125.22C520.034 125.22 505.954 135.34 492.314 155.58C478.674 175.6 471.854 193.53 471.854 209.37C471.854 216.19 474.494 219.6 479.774 219.6C485.494 219.6 492.204 216.08 499.904 209.04C507.604 201.78 514.534 193.31 520.694 183.63C534.334 162.07 544.124 146.12 550.064 135.78ZM745.641 180.33C737.941 193.31 730.131 205.08 722.211 215.64C705.271 237.64 688.551 248.64 672.051 248.64C663.031 248.64 656.211 244.13 651.591 235.11C647.191 226.09 644.991 216.08 644.991 205.08C644.991 183.08 648.291 172.08 654.891 172.08C665.231 172.08 674.801 169.77 683.601 165.15C692.401 160.31 696.801 154.04 696.801 146.34C696.801 140.18 693.281 137.1 686.241 137.1C671.061 137.1 654.231 153.6 635.751 186.6C633.991 189.9 630.251 197.6 624.531 209.7C619.031 221.58 614.081 230.6 609.681 236.76C605.501 242.92 601.321 246 597.141 246H577.011C583.831 233.24 593.841 207.5 607.041 168.78C620.461 129.84 630.361 103.77 636.741 90.57C636.961 90.13 638.281 87.27 640.701 81.99C643.341 76.71 645.101 73.08 645.981 71.1C647.081 69.12 649.061 65.38 651.921 59.88C654.781 54.38 657.091 50.31 658.851 47.67C660.611 45.03 663.031 41.29 666.111 36.45C669.191 31.39 671.941 27.54 674.361 24.9C676.781 22.26 679.641 19.18 682.941 15.66C686.241 11.92 689.321 9.16999 692.181 7.40998C699.661 3.00999 706.481 0.80999 712.641 0.80999C724.741 0.80999 730.791 6.30999 730.791 17.31C730.791 32.71 721.441 53.17 702.741 78.69C684.261 103.99 663.361 127.97 640.041 150.63L634.101 167.13C644.661 153.49 656.651 141.61 670.071 131.49C683.491 121.15 695.811 115.98 707.031 115.98C713.411 115.98 718.361 117.52 721.881 120.6C725.621 123.68 727.491 127.86 727.491 133.14C727.491 145.24 722.101 155.03 711.321 162.51C700.761 169.77 688.551 174.5 674.691 176.7C676.671 199.58 679.861 213.55 684.261 218.61C686.461 221.03 689.211 222.24 692.511 222.24C695.811 222.24 700.321 220.26 706.041 216.3C711.761 212.34 716.381 208.05 719.901 203.43C723.641 198.59 727.491 192.87 731.451 186.27C735.631 179.67 739.151 173.95 742.011 169.11C745.091 164.27 746.851 161.85 747.291 161.85C748.611 161.85 749.271 164.05 749.271 168.45C749.271 172.63 748.061 176.59 745.641 180.33ZM713.301 9.39C700.981 9.39 679.421 48.99 648.621 128.19C676.781 95.19 696.581 67.36 708.021 44.7C714.621 32.82 717.921 23.03 717.921 15.33C717.921 11.37 716.381 9.39 713.301 9.39ZM766.145 142.71C749.645 174.17 740.515 189.9 738.755 189.9C737.655 189.9 737.105 188.14 737.105 184.62C737.105 180.88 737.765 177.69 739.085 175.05C749.865 156.57 758.005 138.97 763.505 122.25C764.385 119.39 765.375 117.52 766.475 116.64C767.575 115.54 769.445 114.99 772.085 114.99H774.725L803.765 117.3C805.085 114 807.285 107.95 810.365 99.15C813.665 90.35 816.195 83.64 817.955 79.02C819.715 74.4 822.355 68.13 825.875 60.21C829.395 52.29 832.585 46.02 835.445 41.4C838.305 36.78 842.045 31.61 846.665 25.89C851.285 19.95 855.905 15.44 860.525 12.36C871.745 4.87999 883.845 1.13999 896.825 1.13999C919.705 1.13999 931.145 9.60999 931.145 26.55C931.145 32.93 929.275 38.65 925.535 43.71C922.015 48.77 917.285 51.3 911.345 51.3C908.485 51.3 905.955 50.53 903.755 48.99C901.775 47.45 900.785 45.69 900.785 43.71C900.785 41.51 902.435 38.1 905.735 33.48C909.035 28.64 910.685 24.57 910.685 21.27C910.685 17.75 909.255 14.89 906.395 12.69C903.755 10.49 900.565 9.39 896.825 9.39C890.225 9.39 883.625 12.91 877.025 19.95C870.425 26.99 864.375 36.23 858.875 47.67C849.195 67.69 840.505 89.03 832.805 111.69C832.585 112.79 832.365 113.56 832.145 114C831.485 115.76 830.935 117.3 830.495 118.62C865.255 118.62 885.055 117.08 889.895 114C887.035 121.04 880.875 125.66 871.415 127.86C861.955 130.06 846.775 131.38 825.875 131.82L816.305 159.54C802.665 198.7 792.105 225.65 784.625 240.39C777.145 254.91 769.995 267.45 763.175 278.01C756.575 288.57 749.975 297.26 743.375 304.08C728.415 319.92 712.905 327.84 696.845 327.84C686.065 327.84 678.145 325.31 673.085 320.25C667.805 315.19 665.165 309.47 665.165 303.09C665.165 296.93 666.595 291.76 669.455 287.58C672.315 283.4 675.505 281.31 679.025 281.31C682.545 281.31 685.185 282.08 686.945 283.62C688.705 285.38 689.585 287.14 689.585 288.9C689.585 290.88 688.485 293.85 686.285 297.81C683.865 301.99 682.655 305.51 682.655 308.37C682.655 311.23 683.425 313.65 684.965 315.63C686.505 317.61 689.255 318.6 693.215 318.6C697.175 318.6 701.905 316.62 707.405 312.66C712.685 308.92 717.855 303.42 722.915 296.16C741.835 268.22 766.805 213.55 797.825 132.15H788.585C777.365 132.15 769.885 135.67 766.145 142.71ZM980.931 114L997.431 114.33H1000.73C993.471 120.27 984.561 135.34 974.001 159.54C963.441 183.52 958.161 201.01 958.161 212.01C958.161 217.73 960.141 220.59 964.101 220.59C976.861 220.59 993.141 201.78 1012.94 164.16C1013.82 162.62 1014.59 161.85 1015.25 161.85C1016.57 161.85 1017.23 163.94 1017.23 168.12C1017.23 172.08 1016.13 175.93 1013.93 179.67C986.871 225.21 964.211 247.98 945.951 247.98C934.071 247.98 928.131 238.85 928.131 220.59C928.131 206.95 930.441 193.53 935.061 180.33C909.981 224.77 886.771 246.99 865.431 246.99C850.691 246.99 843.321 236.87 843.321 216.63C843.321 201.23 846.621 185.61 853.221 169.77C860.041 153.93 869.721 140.51 882.261 129.51C894.801 118.29 908.551 112.68 923.511 112.68C930.551 112.68 937.151 114.33 943.311 117.63C949.471 120.71 953.541 125.77 955.521 132.81C957.941 127.75 961.681 123.35 966.741 119.61C971.801 115.87 976.531 114 980.931 114ZM953.541 135.78C951.341 128.74 946.171 125.22 938.031 125.22C923.511 125.22 909.431 135.34 895.791 155.58C882.151 175.6 875.331 193.53 875.331 209.37C875.331 216.19 877.971 219.6 883.251 219.6C888.971 219.6 895.681 216.08 903.381 209.04C911.081 201.78 918.011 193.31 924.171 183.63C937.811 162.07 947.601 146.12 953.541 135.78ZM1138.89 179.01C1122.39 206.51 1107.43 225.65 1094.01 236.43C1080.59 247.21 1063.21 252.6 1041.87 252.6C1029.55 252.6 1019.21 250.29 1010.85 245.67C1002.49 240.83 998.308 233.79 998.308 224.55C998.308 219.27 999.848 214.43 1002.93 210.03C1006.01 205.63 1010.19 203.43 1015.47 203.43C1020.97 203.43 1024.49 205.41 1026.03 209.37C1021.85 213.55 1019.76 218.39 1019.76 223.89C1019.76 234.89 1025.92 240.39 1038.24 240.39C1045.5 240.39 1051.77 237.86 1057.05 232.8C1062.55 227.74 1065.3 222.24 1065.3 216.3C1065.3 210.14 1063.98 204.75 1061.34 200.13C1058.7 195.51 1055.51 191.44 1051.77 187.92C1048.03 184.4 1044.29 180.88 1040.55 177.36C1031.53 168.78 1027.02 158.99 1027.02 147.99C1027.02 136.77 1031.2 127.42 1039.56 119.94C1048.14 112.24 1059.8 108.39 1074.54 108.39C1083.78 108.39 1091.59 110.04 1097.97 113.34C1104.35 116.64 1107.54 121.81 1107.54 128.85C1107.54 135.67 1105.45 141.61 1101.27 146.67C1097.09 151.73 1091.37 154.26 1084.11 154.26C1077.07 154.26 1073.55 150.96 1073.55 144.36C1073.55 142.82 1076.08 140.51 1081.14 137.43C1086.2 134.35 1088.73 131.16 1088.73 127.86C1088.73 124.56 1087.3 122.14 1084.44 120.6C1081.8 118.84 1077.95 117.96 1072.89 117.96C1067.83 117.96 1062.88 119.72 1058.04 123.24C1053.42 126.76 1051.11 131.38 1051.11 137.1C1051.11 142.82 1053.53 148.21 1058.37 153.27C1063.21 158.33 1068.49 162.62 1074.21 166.14C1079.93 169.66 1085.21 174.61 1090.05 180.99C1094.89 187.15 1097.31 193.75 1097.31 200.79C1097.31 207.61 1095.66 213.77 1092.36 219.27C1089.28 224.77 1085.54 229.17 1081.14 232.47C1093.46 227.19 1106.55 213.99 1120.41 192.87C1121.73 191.11 1124.04 187.48 1127.34 181.98C1135.04 168.12 1139.33 161.19 1140.21 161.19C1141.53 161.19 1142.19 163.28 1142.19 167.46C1142.19 171.42 1141.09 175.27 1138.89 179.01ZM1228.95 56.91C1218.17 64.39 1206.07 83.53 1192.65 114.33H1225.98L1226.31 114.66C1226.31 115.76 1225.1 117.74 1222.68 120.6C1220.26 123.24 1218.17 124.56 1216.41 124.56H1188.03C1170.65 167.68 1161.96 195.4 1161.96 207.72C1161.96 216.08 1164.6 220.26 1169.88 220.26C1177.58 220.26 1186.6 213.66 1196.94 200.46C1199.36 197.6 1202.55 192.76 1206.51 185.94C1216.63 169.66 1221.91 161.52 1222.35 161.52C1223.67 161.52 1224.33 163.28 1224.33 166.8C1224.11 175.16 1214.98 191.44 1196.94 215.64C1191 223.56 1183.85 230.93 1175.49 237.75C1167.13 244.57 1159.54 247.98 1152.72 247.98C1140.18 247.98 1133.91 239.18 1133.91 221.58C1133.91 206.84 1137.43 189.9 1144.47 170.76V170.43C1140.29 178.13 1136.66 183.85 1133.58 187.59C1130.72 191.33 1129.07 193.2 1128.63 193.2C1127.75 193.2 1127.31 191.88 1127.31 189.24C1127.31 186.38 1128.74 181.87 1131.6 175.71C1134.68 169.55 1138.75 161.52 1143.81 151.62C1149.09 141.72 1153.38 132.7 1156.68 124.56H1134.57C1133.91 124.56 1133.58 124.12 1133.58 123.24C1133.58 122.14 1134.35 120.38 1135.89 117.96C1137.65 115.54 1138.97 114.33 1139.85 114.33H1164.93C1180.77 76.27 1196.83 57.24 1213.11 57.24C1222.57 57.24 1227.85 57.13 1228.95 56.91Z" fill="black"/>
</svg>
