<svg width="217" height="36" viewBox="0 0 217 36" fill="none" xmlns="http://www.w3.org/2000/svg">
<path d="M22.6777 5.62305C24.2012 6.61914 25.4316 7.94922 26.3691 9.61328C27.3066 11.2656 27.7754 13.293 27.7754 15.6953C27.7754 17.8047 27.3535 19.6445 26.5098 21.2148C25.6777 22.7734 24.5703 24.0508 23.1875 25.0469C21.7812 26.043 20.1816 26.7871 18.3887 27.2793C16.6074 27.7598 14.7383 28 12.7812 28H0.212891V26.6289C0.587891 26.6172 1.05664 26.582 1.61914 26.5234C2.18164 26.4648 2.55664 26.3945 2.74414 26.3125C3.16602 26.1367 3.45898 25.9023 3.62305 25.6094C3.78711 25.3047 3.86914 24.9414 3.86914 24.5195V6.83594C3.86914 6.4375 3.79297 6.08008 3.64062 5.76367C3.48828 5.43555 3.18945 5.17187 2.74414 4.97266C2.29883 4.77344 1.82422 4.63867 1.32031 4.56836C0.828125 4.49805 0.447266 4.45117 0.177734 4.42773V3.05664H13.4492C14.8672 3.05664 16.3848 3.23828 18.002 3.60156C19.6191 3.96484 21.1777 4.63867 22.6777 5.62305ZM19.0918 23.5C19.666 22.5625 20.082 21.4492 20.3398 20.1602C20.6094 18.8594 20.7441 17.3652 20.7441 15.6777C20.7441 14.0254 20.5684 12.5195 20.2168 11.1602C19.8652 9.80078 19.3496 8.64063 18.6699 7.67969C17.9902 6.71875 17.1406 5.97461 16.1211 5.44727C15.1133 4.91992 13.9648 4.65625 12.6758 4.65625C12.2656 4.65625 11.7969 4.66797 11.2695 4.69141C10.7539 4.70313 10.3672 4.71484 10.1094 4.72656V23.6582C10.1094 24.0801 10.1621 24.4551 10.2676 24.7832C10.3848 25.0996 10.5781 25.3809 10.8477 25.627C11.1172 25.873 11.4453 26.0664 11.832 26.207C12.2305 26.3359 12.7461 26.4004 13.3789 26.4004C14.7031 26.4004 15.8398 26.1543 16.7891 25.6621C17.7383 25.1699 18.5059 24.4492 19.0918 23.5ZM48.9395 23.7988C48.5293 24.4668 48.0312 25.0996 47.4453 25.6973C46.8711 26.2832 46.2148 26.7871 45.4766 27.209C44.6914 27.6543 43.8945 27.9883 43.0859 28.2109C42.2891 28.4453 41.3691 28.5625 40.3262 28.5625C38.5918 28.5625 37.0918 28.3164 35.8262 27.8242C34.5723 27.332 33.5352 26.6699 32.7148 25.8379C31.8945 25.0059 31.2793 24.0273 30.8691 22.9023C30.4707 21.7656 30.2715 20.5352 30.2715 19.2109C30.2715 18.0156 30.4883 16.873 30.9219 15.7832C31.3672 14.6816 31.9941 13.7031 32.8027 12.8477C33.5996 12.0156 34.6016 11.3418 35.8086 10.8262C37.0273 10.3105 38.3867 10.0527 39.8867 10.0527C41.5273 10.0527 42.875 10.252 43.9297 10.6504C44.9844 11.0488 45.8574 11.5996 46.5488 12.3027C47.2168 12.9707 47.7031 13.7617 48.0078 14.6758C48.3125 15.5781 48.4648 16.5273 48.4648 17.5234V18.666H36.582C36.582 21.0684 37.0449 22.8965 37.9707 24.1504C38.8965 25.4043 40.3672 26.0312 42.3828 26.0312C43.4844 26.0312 44.4746 25.7324 45.3535 25.1348C46.2324 24.5254 46.9824 23.7578 47.6035 22.832L48.9395 23.7988ZM42.2246 17.1191C42.2246 16.416 42.1895 15.6953 42.1191 14.957C42.0488 14.2188 41.9258 13.6152 41.75 13.1465C41.5508 12.5957 41.2754 12.1797 40.9238 11.8984C40.584 11.6172 40.1504 11.4766 39.623 11.4766C38.7207 11.4766 38 11.9336 37.4609 12.8477C36.9219 13.7617 36.6289 15.209 36.582 17.1895L42.2246 17.1191ZM58.7832 28.5977C57.6465 28.5977 56.5332 28.4277 55.4434 28.0879C54.3652 27.7598 53.5273 27.4082 52.9297 27.0332L52.4023 28.2285H51.0312L50.8027 21.6719H52.0859C52.2617 22.1992 52.5547 22.7969 52.9648 23.4648C53.375 24.1211 53.8438 24.7129 54.3711 25.2402C54.9219 25.7676 55.5488 26.2129 56.252 26.5762C56.9668 26.9395 57.7285 27.1211 58.5371 27.1211C59.6035 27.1211 60.3945 26.916 60.9102 26.5059C61.4375 26.084 61.7012 25.4395 61.7012 24.5723C61.7012 24.1035 61.584 23.7168 61.3496 23.4121C61.1152 23.1074 60.793 22.8438 60.3828 22.6211C59.9258 22.3867 59.4219 22.1875 58.8711 22.0234C58.332 21.8594 57.6641 21.6602 56.8672 21.4258C56.0703 21.1914 55.3848 20.957 54.8105 20.7227C54.248 20.4766 53.6621 20.0957 53.0527 19.5801C52.5254 19.123 52.1035 18.5723 51.7871 17.9277C51.4707 17.2832 51.3125 16.5156 51.3125 15.625C51.3125 13.9727 52.0039 12.6367 53.3867 11.6172C54.7812 10.5977 56.6035 10.0879 58.8535 10.0879C59.9199 10.0879 60.8984 10.1992 61.7891 10.4219C62.6914 10.6328 63.4473 10.8672 64.0566 11.125L64.4258 10.0879H65.7617L66.043 16.082H64.7949C64.3848 14.8633 63.6816 13.8145 62.6855 12.9355C61.6895 12.0449 60.6172 11.5996 59.4688 11.5996C58.5664 11.5996 57.8574 11.7871 57.3418 12.1621C56.8262 12.5371 56.5684 13.0586 56.5684 13.7266C56.5684 14.6172 56.9434 15.2617 57.6934 15.6602C58.4551 16.0586 59.5156 16.4336 60.875 16.7852C62.9727 17.3242 64.5078 18.0625 65.4805 19C66.4531 19.9258 66.9395 21.1094 66.9395 22.5508C66.9395 24.4727 66.1836 25.9609 64.6719 27.0156C63.1719 28.0703 61.209 28.5977 58.7832 28.5977ZM79.1387 28.5625C77.5098 28.5625 76.0684 28.3281 74.8145 27.8594C73.5723 27.3789 72.5469 26.7285 71.7383 25.9082C70.9297 25.0762 70.3262 24.0918 69.9277 22.9551C69.5293 21.8184 69.3301 20.582 69.3301 19.2461C69.3301 18.0273 69.5703 16.8672 70.0508 15.7656C70.543 14.6641 71.2051 13.6973 72.0371 12.8652C72.8926 12.0098 73.9531 11.3301 75.2188 10.8262C76.4961 10.3105 77.9023 10.0527 79.4375 10.0527C81.5938 10.0527 83.2988 10.4629 84.5527 11.2832C85.8066 12.0918 86.4336 13.1875 86.4336 14.5703C86.4336 15.4141 86.2109 16.0938 85.7656 16.6094C85.3203 17.125 84.5527 17.3828 83.4629 17.3828C82.584 17.3828 81.8457 17.1719 81.248 16.75C80.6621 16.3281 80.3691 15.7773 80.3691 15.0977C80.3691 14.5234 80.4629 13.9551 80.6504 13.3926C80.8379 12.8301 80.9492 12.4023 80.9844 12.1094C80.8555 11.8984 80.6914 11.7402 80.4922 11.6348C80.293 11.5176 79.9824 11.459 79.5605 11.459C79.0332 11.459 78.5527 11.582 78.1191 11.8281C77.6855 12.0742 77.2812 12.5078 76.9062 13.1289C76.543 13.7148 76.25 14.5 76.0273 15.4844C75.8164 16.4688 75.7109 17.6523 75.7109 19.0352C75.7109 21.1211 76.1973 22.8027 77.1699 24.0801C78.1543 25.3574 79.3262 25.9961 80.6855 25.9961C81.9863 25.9961 83.0176 25.709 83.7793 25.1348C84.5527 24.5488 85.2383 23.7227 85.8359 22.6562L87.1543 23.5703C86.791 24.2852 86.3574 24.9414 85.8535 25.5391C85.3496 26.125 84.7461 26.6465 84.043 27.1035C83.3047 27.584 82.5547 27.9473 81.793 28.1934C81.0312 28.4395 80.1465 28.5625 79.1387 28.5625ZM105.734 13.7793C105.734 14.6699 105.459 15.4551 104.908 16.1348C104.357 16.8027 103.631 17.1367 102.729 17.1367C101.873 17.1367 101.146 16.9199 100.549 16.4863C99.9629 16.0527 99.6699 15.4141 99.6699 14.5703C99.6699 14.1602 99.6992 13.8438 99.7578 13.6211C99.8164 13.3867 99.8691 13.1699 99.916 12.9707C99.377 12.9941 98.8086 13.1816 98.2109 13.5332C97.6133 13.8848 97.0859 14.3535 96.6289 14.9395V24.5898C96.6289 25 96.6934 25.3398 96.8223 25.6094C96.9512 25.8789 97.168 26.0898 97.4727 26.2422C97.7305 26.3711 98.1465 26.4824 98.7207 26.5762C99.3066 26.6582 99.7285 26.7051 99.9863 26.7168V28H88.2266V26.7168C88.5195 26.6934 88.8125 26.6641 89.1055 26.6289C89.4102 26.582 89.668 26.5234 89.8789 26.4531C90.2539 26.3242 90.5117 26.125 90.6523 25.8555C90.793 25.5859 90.8633 25.2344 90.8633 24.8008V14.5703C90.8633 14.1484 90.7637 13.7734 90.5645 13.4453C90.3652 13.1055 90.125 12.8359 89.8438 12.6367C89.6328 12.4961 89.3633 12.3789 89.0352 12.2852C88.7188 12.1914 88.3672 12.127 87.9805 12.0918V10.8086L96.3652 10.3516L96.6289 10.6152V13.1641H96.6992C97.5078 12.2266 98.3633 11.4941 99.2656 10.9668C100.18 10.4277 101.129 10.1582 102.113 10.1582C103.203 10.1582 104.076 10.498 104.732 11.1777C105.4 11.8457 105.734 12.7129 105.734 13.7793ZM118.074 28H106.965V26.7168C107.27 26.6934 107.568 26.6641 107.861 26.6289C108.154 26.5938 108.406 26.5352 108.617 26.4531C108.992 26.3125 109.256 26.1133 109.408 25.8555C109.561 25.5859 109.637 25.2344 109.637 24.8008V14.5703C109.637 14.1602 109.543 13.8027 109.355 13.498C109.168 13.1816 108.934 12.9297 108.652 12.7422C108.441 12.6016 108.119 12.4668 107.686 12.3379C107.264 12.209 106.877 12.127 106.525 12.0918V10.8086L115.139 10.3516L115.402 10.6152V24.5723C115.402 24.9824 115.49 25.334 115.666 25.627C115.842 25.9082 116.094 26.1191 116.422 26.2598C116.656 26.3652 116.914 26.459 117.195 26.541C117.477 26.623 117.77 26.6816 118.074 26.7168V28ZM115.508 4.02344C115.508 4.91406 115.162 5.67578 114.471 6.30859C113.791 6.92969 112.982 7.24023 112.045 7.24023C111.096 7.24023 110.275 6.92969 109.584 6.30859C108.904 5.67578 108.564 4.91406 108.564 4.02344C108.564 3.13281 108.904 2.37109 109.584 1.73828C110.275 1.10547 111.096 0.789062 112.045 0.789062C112.994 0.789062 113.809 1.10547 114.488 1.73828C115.168 2.37109 115.508 3.13281 115.508 4.02344ZM141.102 19.4395C141.102 21.9121 140.275 24.0332 138.623 25.8027C136.971 27.5723 134.879 28.457 132.348 28.457C131.223 28.457 130.309 28.3398 129.605 28.1055C128.902 27.8828 128.322 27.6074 127.865 27.2793H127.725V32.2188C127.725 32.6289 127.812 32.9863 127.988 33.291C128.176 33.5957 128.434 33.8184 128.762 33.959C129.078 34.0879 129.523 34.2051 130.098 34.3105C130.684 34.416 131.17 34.4805 131.557 34.5039V35.8047H118.865V34.5039C119.158 34.4805 119.527 34.4336 119.973 34.3633C120.418 34.3047 120.752 34.2402 120.975 34.1699C121.35 34.041 121.602 33.8184 121.73 33.502C121.871 33.1973 121.941 32.8457 121.941 32.4473V14.4648C121.906 14.0781 121.812 13.7383 121.66 13.4453C121.52 13.1523 121.291 12.8945 120.975 12.6719C120.74 12.5195 120.43 12.3965 120.043 12.3027C119.656 12.1973 119.275 12.127 118.9 12.0918V10.8086L127.461 10.3516L127.725 10.5801V12.5312L127.865 12.5664C128.639 11.7812 129.494 11.1719 130.432 10.7383C131.381 10.3047 132.318 10.0879 133.244 10.0879C135.67 10.0879 137.586 10.9492 138.992 12.6719C140.398 14.3828 141.102 16.6387 141.102 19.4395ZM134.791 19.5098C134.791 18.6309 134.727 17.793 134.598 16.9961C134.469 16.1875 134.24 15.4668 133.912 14.834C133.596 14.2012 133.174 13.6973 132.646 13.3223C132.131 12.9473 131.498 12.7598 130.748 12.7598C129.986 12.7598 129.377 12.8945 128.92 13.1641C128.463 13.4219 128.064 13.7617 127.725 14.1836V24.1504C127.795 24.3848 127.93 24.6895 128.129 25.0645C128.328 25.4277 128.527 25.7207 128.727 25.9434C129.02 26.2598 129.354 26.4941 129.729 26.6465C130.104 26.7988 130.514 26.875 130.959 26.875C132.119 26.875 133.045 26.2539 133.736 25.0117C134.439 23.7578 134.791 21.9238 134.791 19.5098ZM156.465 27.1914C155.715 27.5195 154.912 27.8125 154.057 28.0703C153.201 28.3398 152.158 28.4746 150.928 28.4746C149.1 28.4746 147.74 28.0293 146.85 27.1387C145.971 26.248 145.531 24.9766 145.531 23.3242V12.5312H142.367V10.6328H145.602V5.30664H151.314V10.6328H156.236V12.5312H151.35V22.1641C151.35 23.5352 151.537 24.5078 151.912 25.082C152.299 25.6562 152.984 25.9434 153.969 25.9434C154.285 25.9434 154.725 25.9199 155.287 25.873C155.85 25.8262 156.242 25.7734 156.465 25.7148V27.1914ZM168.805 28H157.695V26.7168C158 26.6934 158.299 26.6641 158.592 26.6289C158.885 26.5938 159.137 26.5352 159.348 26.4531C159.723 26.3125 159.986 26.1133 160.139 25.8555C160.291 25.5859 160.367 25.2344 160.367 24.8008V14.5703C160.367 14.1602 160.273 13.8027 160.086 13.498C159.898 13.1816 159.664 12.9297 159.383 12.7422C159.172 12.6016 158.85 12.4668 158.416 12.3379C157.994 12.209 157.607 12.127 157.256 12.0918V10.8086L165.869 10.3516L166.133 10.6152V24.5723C166.133 24.9824 166.221 25.334 166.396 25.627C166.572 25.9082 166.824 26.1191 167.152 26.2598C167.387 26.3652 167.645 26.459 167.926 26.541C168.207 26.623 168.5 26.6816 168.805 26.7168V28ZM166.238 4.02344C166.238 4.91406 165.893 5.67578 165.201 6.30859C164.521 6.92969 163.713 7.24023 162.775 7.24023C161.826 7.24023 161.006 6.92969 160.314 6.30859C159.635 5.67578 159.295 4.91406 159.295 4.02344C159.295 3.13281 159.635 2.37109 160.314 1.73828C161.006 1.10547 161.826 0.789062 162.775 0.789062C163.725 0.789062 164.539 1.10547 165.219 1.73828C165.898 2.37109 166.238 3.13281 166.238 4.02344ZM188.369 12.6367C189.236 13.4453 189.898 14.4121 190.355 15.5371C190.812 16.6621 191.041 17.8809 191.041 19.1934C191.041 20.4941 190.812 21.7246 190.355 22.8848C189.91 24.0332 189.254 25.0176 188.387 25.8379C187.461 26.7168 186.354 27.3906 185.064 27.8594C183.787 28.3281 182.322 28.5625 180.67 28.5625C179.24 28.5625 177.922 28.3574 176.715 27.9473C175.52 27.5371 174.459 26.9219 173.533 26.1016C172.643 25.3164 171.939 24.3496 171.424 23.2012C170.908 22.041 170.65 20.7461 170.65 19.3164C170.65 17.9102 170.873 16.6621 171.318 15.5723C171.775 14.4707 172.455 13.4922 173.357 12.6367C174.225 11.8164 175.291 11.1836 176.557 10.7383C177.834 10.2812 179.258 10.0527 180.828 10.0527C182.469 10.0527 183.91 10.2812 185.152 10.7383C186.406 11.1836 187.479 11.8164 188.369 12.6367ZM183.869 24.8184C184.127 24.1621 184.314 23.3652 184.432 22.4277C184.561 21.4902 184.625 20.4004 184.625 19.1582C184.625 18.3379 184.566 17.4004 184.449 16.3457C184.332 15.291 184.156 14.459 183.922 13.8496C183.641 13.1113 183.248 12.5312 182.744 12.1094C182.252 11.6875 181.625 11.4766 180.863 11.4766C180.031 11.4766 179.363 11.7051 178.859 12.1621C178.367 12.6191 177.986 13.2109 177.717 13.9375C177.471 14.6055 177.301 15.3906 177.207 16.293C177.113 17.1836 177.066 18.1152 177.066 19.0879C177.066 20.3652 177.107 21.4258 177.189 22.2695C177.271 23.1016 177.471 23.9395 177.787 24.7832C178.057 25.5098 178.443 26.084 178.947 26.5059C179.451 26.9277 180.09 27.1387 180.863 27.1387C181.566 27.1387 182.17 26.9453 182.674 26.5586C183.178 26.1602 183.576 25.5801 183.869 24.8184ZM216.512 28H205.93V26.7168C206.152 26.6934 206.422 26.6641 206.738 26.6289C207.055 26.5938 207.295 26.5352 207.459 26.4531C207.705 26.3242 207.881 26.1367 207.986 25.8906C208.092 25.6445 208.145 25.2812 208.145 24.8008V16.5742C208.145 15.3789 207.922 14.4824 207.477 13.8848C207.043 13.2754 206.398 12.9707 205.543 12.9707C205.074 12.9707 204.635 13.041 204.225 13.1816C203.826 13.3223 203.434 13.5273 203.047 13.7969C202.707 14.0312 202.432 14.2715 202.221 14.5176C202.021 14.7637 201.852 14.9805 201.711 15.168V24.6074C201.711 25.0176 201.77 25.3633 201.887 25.6445C202.004 25.9141 202.197 26.1191 202.467 26.2598C202.654 26.3652 202.889 26.459 203.17 26.541C203.451 26.623 203.727 26.6816 203.996 26.7168V28H193.309V26.7168C193.602 26.6934 193.895 26.6641 194.188 26.6289C194.492 26.582 194.75 26.5234 194.961 26.4531C195.336 26.3242 195.594 26.125 195.734 25.8555C195.875 25.5859 195.945 25.2344 195.945 24.8008V14.5703C195.945 14.207 195.852 13.8496 195.664 13.498C195.477 13.1465 195.23 12.8594 194.926 12.6367C194.715 12.4961 194.445 12.3789 194.117 12.2852C193.801 12.1914 193.449 12.127 193.062 12.0918V10.8086L201.447 10.3516L201.711 10.6152V13.1641H201.781C202.109 12.8711 202.508 12.5195 202.977 12.1094C203.445 11.6992 203.879 11.3652 204.277 11.1074C204.711 10.8262 205.279 10.5859 205.982 10.3867C206.686 10.1875 207.436 10.0879 208.232 10.0879C210.143 10.0879 211.572 10.6328 212.521 11.7227C213.482 12.8008 213.963 14.2363 213.963 16.0293V24.6426C213.963 25.0762 214.027 25.4219 214.156 25.6797C214.285 25.9375 214.525 26.1426 214.877 26.2949C215.064 26.377 215.293 26.459 215.562 26.541C215.844 26.623 216.16 26.6816 216.512 26.7168V28Z" fill="#E12E4B"/>
</svg>
