<svg width="907" height="268" viewBox="0 0 907 268" fill="none" xmlns="http://www.w3.org/2000/svg">
<path d="M260.272 135.7C255.838 163.233 245.455 187.15 229.122 207.45C212.788 227.75 192.955 242.917 169.622 252.95C146.288 262.983 120.972 268 93.6717 268C43.0383 268 17.7217 255.05 17.7217 229.15C17.7217 201.15 42.455 138.267 91.9217 40.5C94.255 35.8333 96.005 32.5667 97.1717 30.7C78.7383 32.1 59.955 36.1833 40.8217 42.95C21.6883 49.7167 9.20501 58.1167 3.37168 68.15C3.13835 68.85 2.55501 69.2 1.62168 69.2C0.688346 69.2 0.221679 68.6167 0.221679 67.45C0.221679 66.05 0.338346 65.1167 0.571679 64.65C9.43835 40.3833 25.655 25.5667 49.2217 20.2C59.955 17.8667 74.305 16.7 92.2717 16.7H164.022C197.155 16.7 221.772 25.6833 237.872 43.65C253.972 61.6167 262.022 84.4833 262.022 112.25C262.022 119.017 261.438 126.833 260.272 135.7ZM223.522 138.5C226.088 127.767 227.372 117.5 227.372 107.7C227.372 85.0667 220.722 66.2833 207.422 51.35C199.955 43.1833 189.688 37.2333 176.622 33.5C163.788 29.5333 151.772 27.55 140.572 27.55C129.372 42.25 115.955 66.5167 100.322 100.35C84.9217 133.95 72.4383 165.683 62.8717 195.55C57.9717 210.25 55.5217 222.15 55.5217 231.25C55.5217 240.117 57.855 245.95 62.5217 248.75C67.1883 251.55 75.4717 252.95 87.3717 252.95C119.805 252.95 148.738 242.1 174.172 220.4C199.605 198.467 216.055 171.167 223.522 138.5ZM362.108 120.3L379.958 120.65H383.458C379.958 123.217 374.941 130.8 368.408 143.4C362.108 156 357.325 165.567 354.058 172.1C351.025 178.4 347.525 187.033 343.558 198C339.825 208.733 337.958 217.483 337.958 224.25C337.958 231.017 340.291 234.4 344.958 234.4C347.991 234.167 352.191 232.067 357.558 228.1C363.158 223.9 367.708 219.583 371.208 215.15C374.941 210.483 378.908 204.65 383.108 197.65C387.541 190.417 391.275 184.233 394.308 179.1C397.575 173.733 399.441 171.05 399.908 171.05C401.541 171.05 402.358 173.267 402.358 177.7C402.358 181.9 401.191 185.983 398.858 189.95C388.825 206.517 380.541 219.233 374.008 228.1C367.475 236.967 359.541 245.133 350.208 252.6C341.108 259.833 332.825 263.45 325.358 263.45C312.058 263.45 305.408 253.65 305.408 234.05C305.408 220.75 307.975 205.7 313.108 188.9C318.241 172.1 325.825 155.883 335.858 140.25C327.691 146.783 319.525 150.05 311.358 150.05C308.791 150.05 306.108 149.467 303.308 148.3C286.741 180.967 277.758 197.3 276.358 197.3C275.191 197.3 274.608 195.433 274.608 191.7C274.608 187.733 276.008 182.367 278.808 175.6C281.841 168.6 284.991 161.95 288.258 155.65C291.758 149.35 293.625 145.85 293.858 145.15C285.458 140.95 281.258 134.183 281.258 124.85C281.258 120.183 282.658 115.983 285.458 112.25C288.491 108.517 292.575 106.65 297.708 106.65C302.841 106.65 307.041 108.283 310.308 111.55C309.841 112.95 309.608 115.05 309.608 117.85C309.608 124.15 311.825 129.167 316.258 132.9C320.925 136.4 326.525 138.15 333.058 138.15C334.925 138.15 336.325 138.033 337.258 137.8C345.425 126.133 353.708 120.3 362.108 120.3ZM485.986 74.8H484.586C479.919 74.8 475.369 76.7833 470.936 80.75C466.736 84.7167 463.703 88.8 461.836 93C455.769 90.6667 452.736 86.4667 452.736 80.4C452.736 74.3333 455.536 68.2667 461.136 62.2C466.736 55.9 472.103 52.75 477.236 52.75C482.369 52.75 486.219 53.9167 488.786 56.25C491.353 58.5833 492.636 61.6167 492.636 65.35C492.636 68.85 490.419 72 485.986 74.8ZM438.386 121L455.886 121.35H459.386C455.653 124.15 450.636 131.733 444.336 144.1C438.269 156.467 433.719 165.8 430.686 172.1C427.653 178.4 424.153 186.917 420.186 197.65C416.453 208.383 414.586 217.133 414.586 223.9C414.586 230.667 416.803 234.05 421.236 234.05C424.269 234.05 428.469 232.067 433.836 228.1C439.436 223.9 443.986 219.583 447.486 215.15C450.986 210.483 454.836 204.65 459.036 197.65C463.469 190.65 467.203 184.583 470.236 179.45C473.503 174.317 475.369 171.75 475.836 171.75C477.236 171.75 477.936 173.967 477.936 178.4C477.936 182.6 476.769 186.683 474.436 190.65C465.803 205.117 457.869 217.25 450.636 227.05C443.636 236.617 435.586 245.017 426.486 252.25C417.386 259.483 409.103 263.1 401.636 263.1C388.569 263.1 382.036 254 382.036 235.8C382.036 207.567 391.719 176.3 411.086 142C419.253 128 428.353 121 438.386 121ZM626.965 190.65C618.332 205.117 610.398 217.25 603.165 227.05C596.165 236.617 588.115 245.017 579.015 252.25C569.915 259.483 561.632 263.1 554.165 263.1C540.398 263.1 533.515 255.517 533.515 240.35C533.515 225.183 542.265 194.733 559.765 149C560.698 146.9 561.165 144.683 561.165 142.35C561.165 137.45 558.015 135 551.715 135C545.648 135 539.582 136.983 533.515 140.95C527.682 144.683 522.315 150.167 517.415 157.4C512.515 164.4 508.082 171.633 504.115 179.1C500.148 186.333 496.415 194.733 492.915 204.3C489.648 213.867 486.965 221.917 484.865 228.45C482.998 234.75 481.015 241.633 478.915 249.1C477.048 256.333 475.998 260.3 475.765 261H441.815C441.815 256.1 452.082 227.983 472.615 176.65C481.015 152.617 485.215 135.817 485.215 126.25C485.215 123.917 484.865 122.167 484.165 121H498.865C507.032 121 512.282 121.817 514.615 123.45C516.948 125.083 518.115 127.3 518.115 130.1C518.115 132.9 516.832 138.617 514.265 147.25C533.865 128.583 553.582 119.25 573.415 119.25C586.715 119.25 593.365 125.317 593.365 137.45C593.365 141.417 592.782 145.383 591.615 149.35C590.448 153.317 587.532 161.25 582.865 173.15C572.598 199.283 567.465 216.783 567.465 225.65C567.465 231.25 569.565 234.05 573.765 234.05C576.798 234.05 580.998 231.95 586.365 227.75C591.965 223.55 596.515 219.233 600.015 214.8C603.748 210.133 607.715 204.417 611.915 197.65C616.348 190.65 620.082 184.583 623.115 179.45C626.148 174.317 627.898 171.75 628.365 171.75C629.765 171.75 630.465 173.967 630.465 178.4C630.465 182.6 629.298 186.683 626.965 190.65ZM770.306 191.35C762.14 205.117 753.856 217.6 745.456 228.8C727.49 252.133 709.756 263.8 692.256 263.8C682.69 263.8 675.456 259.017 670.556 249.45C665.89 239.883 663.556 229.267 663.556 217.6C663.556 194.267 667.056 182.6 674.056 182.6C685.023 182.6 695.173 180.15 704.506 175.25C713.84 170.117 718.506 163.467 718.506 155.3C718.506 148.767 714.773 145.5 707.306 145.5C691.206 145.5 673.356 163 653.756 198C651.89 201.5 647.923 209.667 641.856 222.5C636.023 235.1 630.773 244.667 626.106 251.2C621.673 257.733 617.24 261 612.806 261H591.456C598.69 247.467 609.306 220.167 623.306 179.1C637.54 137.8 648.04 110.15 654.806 96.15C655.04 95.6833 656.44 92.65 659.006 87.05C661.806 81.45 663.673 77.6 664.606 75.5C665.773 73.4 667.873 69.4333 670.906 63.6C673.94 57.7667 676.39 53.45 678.256 50.65C680.123 47.85 682.69 43.8833 685.956 38.75C689.223 33.3833 692.14 29.3 694.706 26.5C697.273 23.7 700.306 20.4333 703.806 16.7C707.306 12.7333 710.573 9.81665 713.606 7.94998C721.54 3.28332 728.773 0.949989 735.306 0.949989C748.14 0.949989 754.556 6.78332 754.556 18.45C754.556 34.7833 744.64 56.4833 724.806 83.55C705.206 110.383 683.04 135.817 658.306 159.85L652.006 177.35C663.206 162.883 675.923 150.283 690.156 139.55C704.39 128.583 717.456 123.1 729.356 123.1C736.123 123.1 741.373 124.733 745.106 128C749.073 131.267 751.056 135.7 751.056 141.3C751.056 154.133 745.34 164.517 733.906 172.45C722.706 180.15 709.756 185.167 695.056 187.5C697.156 211.767 700.54 226.583 705.206 231.95C707.54 234.517 710.456 235.8 713.956 235.8C717.456 235.8 722.24 233.7 728.306 229.5C734.373 225.3 739.273 220.75 743.006 215.85C746.973 210.717 751.056 204.65 755.256 197.65C759.69 190.65 763.423 184.583 766.456 179.45C769.723 174.317 771.59 171.75 772.056 171.75C773.456 171.75 774.156 174.083 774.156 178.75C774.156 183.183 772.873 187.383 770.306 191.35ZM736.006 10.05C722.94 10.05 700.073 52.05 667.406 136.05C697.273 101.05 718.273 71.5333 730.406 47.5C737.406 34.9 740.906 24.5167 740.906 16.35C740.906 12.15 739.273 10.05 736.006 10.05ZM903.353 189.95C885.853 219.117 869.986 239.417 855.753 250.85C841.52 262.283 823.086 268 800.453 268C787.386 268 776.42 265.55 767.553 260.65C758.686 255.517 754.253 248.05 754.253 238.25C754.253 232.65 755.886 227.517 759.153 222.85C762.42 218.183 766.853 215.85 772.453 215.85C778.286 215.85 782.02 217.95 783.653 222.15C779.22 226.583 777.003 231.717 777.003 237.55C777.003 249.217 783.536 255.05 796.603 255.05C804.303 255.05 810.953 252.367 816.553 247C822.386 241.633 825.303 235.8 825.303 229.5C825.303 222.967 823.903 217.25 821.103 212.35C818.303 207.45 814.92 203.133 810.953 199.4C806.986 195.667 803.02 191.933 799.053 188.2C789.486 179.1 784.703 168.717 784.703 157.05C784.703 145.15 789.136 135.233 798.003 127.3C807.103 119.133 819.47 115.05 835.103 115.05C844.903 115.05 853.186 116.8 859.953 120.3C866.72 123.8 870.103 129.283 870.103 136.75C870.103 143.983 867.886 150.283 863.453 155.65C859.02 161.017 852.953 163.7 845.253 163.7C837.786 163.7 834.053 160.2 834.053 153.2C834.053 151.567 836.736 149.117 842.103 145.85C847.47 142.583 850.153 139.2 850.153 135.7C850.153 132.2 848.636 129.633 845.603 128C842.803 126.133 838.72 125.2 833.353 125.2C827.986 125.2 822.736 127.067 817.603 130.8C812.703 134.533 810.253 139.433 810.253 145.5C810.253 151.567 812.82 157.283 817.953 162.65C823.086 168.017 828.686 172.567 834.753 176.3C840.82 180.033 846.42 185.283 851.553 192.05C856.686 198.583 859.253 205.583 859.253 213.05C859.253 220.283 857.503 226.817 854.003 232.65C850.736 238.483 846.77 243.15 842.103 246.65C855.17 241.05 869.053 227.05 883.753 204.65C885.153 202.783 887.603 198.933 891.103 193.1C899.27 178.4 903.82 171.05 904.753 171.05C906.153 171.05 906.853 173.267 906.853 177.7C906.853 181.9 905.686 185.983 903.353 189.95Z" fill="black"/>
</svg>
