<svg width="59" height="70" viewBox="0 0 59 70" fill="none" xmlns="http://www.w3.org/2000/svg">
<path d="M29.5 0C13.216 0 0 15.68 0 35C0 54.32 13.216 70 29.5 70C45.784 70 59 54.32 59 35C59 15.68 45.784 0 29.5 0ZM29.5 10.5C34.397 10.5 38.35 15.19 38.35 21C38.35 26.81 34.397 31.5 29.5 31.5C24.603 31.5 20.65 26.81 20.65 21C20.65 15.19 24.603 10.5 29.5 10.5ZM29.5 60.2C22.125 60.2 15.6055 55.72 11.8 48.93C11.8885 41.965 23.6 38.15 29.5 38.15C35.3705 38.15 47.1115 41.965 47.2 48.93C43.3945 55.72 36.875 60.2 29.5 60.2Z" fill="#007582"/>
</svg>
