<svg width="718" height="100" viewBox="0 0 718 100" fill="none" xmlns="http://www.w3.org/2000/svg">
<path d="M60.2336 9.1C63.3669 11.6333 64.9336 14.8667 64.9336 18.8C64.9336 22.7333 63.7669 26.2 61.4336 29.2C57.3003 34.6667 50.9336 38.2 42.3336 39.8L39.1336 40.4C42.4669 52 49.4669 63.4667 60.1336 74.8C59.1336 75 57.6003 75.1 55.5336 75.1L47.8336 74.8C45.1669 74.8 42.3336 72.2 39.3336 67C36.4003 61.7333 34.0669 56.4 32.3336 51C30.6003 45.5333 29.7336 41.9 29.7336 40.1C29.7336 39.1 30.2003 38.5667 31.1336 38.5C46.8003 36.5667 54.8669 30.4333 55.3336 20.1C55.3336 16.4333 54.2336 13.6 52.0336 11.6C49.9003 9.6 46.3669 8.46666 41.4336 8.2C36.2336 15.2 30.4669 26.4 24.1336 41.8C17.8669 57.4667 14.7336 67.8 14.7336 72.8C14.7336 73.8 14.8669 74.5333 15.1336 75H2.23359C4.10026 66.9333 8.03359 55.7333 14.0336 41.4C22.0336 22.3333 27.2003 11.5 29.5336 8.9C23.8669 9.03333 18.1003 10.2 12.2336 12.4C6.43359 14.5333 3.06693 17.1 2.13359 20.1C2.06693 20.3 1.93359 20.4 1.73359 20.4C1.13359 20.4 0.833594 19.9667 0.833594 19.1C0.833594 18.9667 0.90026 18.6333 1.03359 18.1C2.30026 14.4333 4.13359 11.6 6.53359 9.6C8.93359 7.6 11.2669 6.36666 13.5336 5.9C15.8669 5.43333 18.7336 5.2 22.1336 5.2H46.4336C52.5669 5.2 57.1669 6.5 60.2336 9.1ZM100.088 49C100.488 49 100.688 49.6667 100.688 51C100.688 52.2667 100.155 53.8 99.0883 55.6C98.0216 57.4 96.955 59.1 95.8883 60.7C94.8883 62.3 93.5216 64.1667 91.7883 66.3C90.0549 68.4333 88.3549 70.1333 86.6883 71.4C82.4883 74.4667 78.2549 76 73.9883 76C69.7883 76 66.3883 74.9333 63.7883 72.8C61.1883 70.6 59.8883 67.2667 59.8883 62.8C59.8883 56 62.3883 49.7 67.3883 43.9C72.3883 38.1 78.2216 35.2 84.8883 35.2C87.8883 35.2 90.2883 36 92.0883 37.6C93.8883 39.1333 94.7883 41 94.7883 43.2C94.7883 46.9333 93.0216 49.9333 89.4883 52.2C85.9549 54.4667 81.7883 55.6 76.9883 55.6C74.1883 55.6 72.1216 55.2333 70.7883 54.5C69.5216 57.9 68.8883 60.9 68.8883 63.5C68.8883 69.1 71.2549 71.9 75.9883 71.9C78.7883 71.9 81.6549 70.8333 84.5883 68.7C87.5883 66.5 90.1216 64.0667 92.1883 61.4C94.3216 58.6667 96.7216 54.7667 99.3883 49.7C99.655 49.2333 99.8883 49 100.088 49ZM89.4883 41.1C89.4883 39.1667 88.5549 38.2 86.6883 38.2C84.0883 38.2 81.1883 39.8 77.9883 43C74.7883 46.2 73.1883 48.8 73.1883 50.8C73.1883 52.1333 74.4549 52.8 76.9883 52.8C79.5216 52.8 82.1549 51.5667 84.8883 49.1C87.6883 46.6333 89.2216 43.9667 89.4883 41.1ZM135.728 49.4C136.128 49.4 136.328 50.0333 136.328 51.3C136.328 52.5667 135.761 54.1333 134.628 56C133.561 57.8667 132.695 59.3 132.028 60.3C131.428 61.2333 130.361 62.7667 128.828 64.9C127.295 67.0333 125.961 68.5667 124.828 69.5C123.695 70.4333 122.261 71.5333 120.528 72.8C117.595 74.9333 113.761 76 109.028 76C104.361 76 100.961 74.8333 98.8281 72.5C96.7615 70.1 95.7281 67 95.7281 63.2C95.7281 56.2 98.1948 49.8 103.128 44C108.128 38.1333 113.995 35.2 120.728 35.2C123.728 35.2 126.128 36 127.928 37.6C129.728 39.1333 130.628 41 130.628 43.2C130.628 45.3333 130.028 47.2 128.828 48.8C127.628 50.4 126.261 51.2 124.728 51.2C121.728 51.2 120.228 49.9667 120.228 47.5C120.228 46.7 121.061 45.9333 122.728 45.2C123.395 44.9333 123.995 44.4333 124.528 43.7C125.061 42.9667 125.328 42 125.328 40.8C125.328 39.0667 124.395 38.2 122.528 38.2C118.528 38.2 114.561 41.1 110.628 46.9C106.695 52.7 104.728 58.3333 104.728 63.8C104.728 69.2 107.095 71.9 111.828 71.9C118.428 71.9 124.861 66.8 131.128 56.6C132.395 54.6 133.428 52.9 134.228 51.5C135.095 50.1 135.595 49.4 135.728 49.4ZM160.368 21.8H159.968C158.635 21.8 157.335 22.3667 156.068 23.5C154.868 24.6333 154.001 25.8 153.468 27C151.735 26.3333 150.868 25.1333 150.868 23.4C150.868 21.6667 151.668 19.9333 153.268 18.2C154.868 16.4 156.401 15.5 157.868 15.5C159.335 15.5 160.435 15.8333 161.168 16.5C161.901 17.1667 162.268 18.0333 162.268 19.1C162.268 20.1 161.635 21 160.368 21.8ZM146.768 35L151.768 35.1H152.768C151.701 35.9 150.268 38.0667 148.468 41.6C146.735 45.1333 145.435 47.8 144.568 49.6C143.701 51.4 142.701 53.8333 141.568 56.9C140.501 59.9667 139.968 62.4667 139.968 64.4C139.968 66.3333 140.601 67.3 141.868 67.3C142.735 67.3 143.935 66.7333 145.468 65.6C147.068 64.4 148.368 63.1667 149.368 61.9C150.368 60.5667 151.468 58.9 152.668 56.9C153.935 54.9 155.001 53.1667 155.868 51.7C156.801 50.2333 157.335 49.5 157.468 49.5C157.868 49.5 158.068 50.1333 158.068 51.4C158.068 52.6 157.735 53.7667 157.068 54.9C154.601 59.0333 152.335 62.5 150.268 65.3C148.268 68.0333 145.968 70.4333 143.368 72.5C140.768 74.5667 138.401 75.6 136.268 75.6C132.535 75.6 130.668 73 130.668 67.8C130.668 59.7333 133.435 50.8 138.968 41C141.301 37 143.901 35 146.768 35ZM197.148 53.6C193.148 60.9333 188.814 66.6333 184.148 70.7C179.481 74.7667 173.948 76.8 167.548 76.8C161.148 76.8 157.548 75.1667 156.748 71.9L151.148 89.4C149.814 93.3333 148.814 95.8667 148.148 97C147.414 98.2 146.614 98.9667 145.748 99.3C144.881 99.6333 143.781 99.8 142.448 99.8H137.648C139.381 97.2667 142.881 88.5333 148.148 73.6C153.414 58.6 156.881 49.0333 158.548 44.9C160.281 40.7667 161.548 38.2667 162.348 37.4C163.948 35.8 166.714 35 170.648 35H173.648C171.714 36.3333 169.081 40.3333 165.748 47C171.948 38.7333 177.414 34.6 182.148 34.6C186.614 34.6 188.848 37.6667 188.848 43.8C188.848 48.8667 187.248 54.0667 184.048 59.4C180.848 64.7333 177.081 68.8667 172.748 71.8H173.548C176.281 71.8 179.048 70.7 181.848 68.5C184.714 66.3 187.181 63.8667 189.248 61.2C190.381 59.7333 191.981 57.2667 194.048 53.8C196.114 50.2667 197.214 48.5 197.348 48.5C197.881 48.5 198.148 49.0667 198.148 50.2C198.148 51.3333 197.814 52.4667 197.148 53.6ZM177.648 43.1C177.448 43.0333 177.148 43 176.748 43C175.348 43 173.814 43.6667 172.148 45C169.414 47.1333 166.514 50.6667 163.448 55.6C160.381 60.5333 158.848 64.5667 158.848 67.7C158.848 70.8333 159.814 72.4 161.748 72.4C165.214 72.4 168.981 68.9667 173.048 62.1C177.114 55.2333 179.148 49.8667 179.148 46C179.148 44.3333 178.648 43.3667 177.648 43.1ZM232.803 49C233.203 49 233.403 49.6667 233.403 51C233.403 52.2667 232.87 53.8 231.803 55.6C230.736 57.4 229.67 59.1 228.603 60.7C227.603 62.3 226.236 64.1667 224.503 66.3C222.77 68.4333 221.07 70.1333 219.403 71.4C215.203 74.4667 210.97 76 206.703 76C202.503 76 199.103 74.9333 196.503 72.8C193.903 70.6 192.603 67.2667 192.603 62.8C192.603 56 195.103 49.7 200.103 43.9C205.103 38.1 210.936 35.2 217.603 35.2C220.603 35.2 223.003 36 224.803 37.6C226.603 39.1333 227.503 41 227.503 43.2C227.503 46.9333 225.736 49.9333 222.203 52.2C218.67 54.4667 214.503 55.6 209.703 55.6C206.903 55.6 204.836 55.2333 203.503 54.5C202.236 57.9 201.603 60.9 201.603 63.5C201.603 69.1 203.97 71.9 208.703 71.9C211.503 71.9 214.37 70.8333 217.303 68.7C220.303 66.5 222.836 64.0667 224.903 61.4C227.036 58.6667 229.436 54.7667 232.103 49.7C232.37 49.2333 232.603 49 232.803 49ZM222.203 41.1C222.203 39.1667 221.27 38.2 219.403 38.2C216.803 38.2 213.903 39.8 210.703 43C207.503 46.2 205.903 48.8 205.903 50.8C205.903 52.1333 207.17 52.8 209.703 52.8C212.236 52.8 214.87 51.5667 217.603 49.1C220.403 46.6333 221.936 43.9667 222.203 41.1ZM332.823 44.7C328.423 54.7 322.123 62.8 313.923 69C305.79 75.1333 296.523 78.2 286.123 78.2C269.59 78.2 261.323 70.9 261.323 56.3C261.323 49.7 262.69 43.2333 265.423 36.9C268.223 30.5 271.89 24.9333 276.423 20.2C280.957 15.4 286.323 11.5333 292.523 8.6C298.723 5.66667 305.057 4.2 311.523 4.2C319.99 4.2 326.323 6.3 330.523 10.5C334.79 14.6333 336.923 19.8333 336.923 26.1C336.923 32.3 335.557 38.5 332.823 44.7ZM328.623 25.1C328.623 14.2333 323.757 8.79999 314.023 8.79999C306.957 8.79999 300.19 11.2333 293.723 16.1C287.323 20.9667 282.257 27.0667 278.523 34.4C274.857 41.7333 273.023 49.0667 273.023 56.4C273.023 61.6667 274.19 65.9333 276.523 69.2C278.857 72.4667 282.557 74.1 287.623 74.1C292.757 74.1 297.89 72.5667 303.023 69.5C308.157 66.4333 312.557 62.5333 316.223 57.8C319.89 53 322.857 47.7 325.123 41.9C327.457 36.0333 328.623 30.4333 328.623 25.1ZM344.593 43.7C339.593 53.2333 336.826 58 336.293 58C335.96 58 335.793 57.4667 335.793 56.4C335.793 55.2667 335.993 54.3 336.393 53.5C339.66 47.9 342.126 42.5667 343.793 37.5C344.06 36.6333 344.36 36.0667 344.693 35.8C345.026 35.4667 345.593 35.3 346.393 35.3H347.193L355.993 36C356.393 35 357.06 33.1667 357.993 30.5C358.993 27.8333 359.76 25.8 360.293 24.4C360.826 23 361.626 21.1 362.693 18.7C363.76 16.3 364.726 14.4 365.593 13C366.46 11.6 367.593 10.0333 368.993 8.29999C370.393 6.5 371.793 5.13333 373.193 4.2C376.593 1.93333 380.26 0.799996 384.193 0.799996C391.126 0.799996 394.593 3.36666 394.593 8.5C394.593 10.4333 394.026 12.1667 392.893 13.7C391.826 15.2333 390.393 16 388.593 16C387.726 16 386.96 15.7667 386.293 15.3C385.693 14.8333 385.393 14.3 385.393 13.7C385.393 13.0333 385.893 12 386.893 10.6C387.893 9.13333 388.393 7.9 388.393 6.89999C388.393 5.83333 387.96 4.96666 387.093 4.3C386.293 3.63333 385.326 3.3 384.193 3.3C382.193 3.3 380.193 4.36666 378.193 6.49999C376.193 8.63333 374.36 11.4333 372.693 14.9C369.76 20.9667 367.126 27.4333 364.793 34.3C364.726 34.6333 364.66 34.8667 364.593 35C364.393 35.5333 364.226 36 364.093 36.4C374.626 36.4 380.626 35.9333 382.093 35C381.226 37.1333 379.36 38.5333 376.493 39.2C373.626 39.8667 369.026 40.2667 362.693 40.4L359.793 48.8C355.66 60.6667 352.46 68.8333 350.193 73.3C347.926 77.7 345.76 81.5 343.693 84.7C341.693 87.9 339.693 90.5333 337.693 92.6C333.16 97.4 328.46 99.8 323.593 99.8C320.326 99.8 317.926 99.0333 316.393 97.5C314.793 95.9667 313.993 94.2333 313.993 92.3C313.993 90.4333 314.426 88.8667 315.293 87.6C316.16 86.3333 317.126 85.7 318.193 85.7C319.26 85.7 320.06 85.9333 320.593 86.4C321.126 86.9333 321.393 87.4667 321.393 88C321.393 88.6 321.06 89.5 320.393 90.7C319.66 91.9667 319.293 93.0333 319.293 93.9C319.293 94.7667 319.526 95.5 319.993 96.1C320.46 96.7 321.293 97 322.493 97C323.693 97 325.126 96.4 326.793 95.2C328.393 94.0667 329.96 92.4 331.493 90.2C337.226 81.7333 344.793 65.1667 354.193 40.5H351.393C347.993 40.5 345.726 41.5667 344.593 43.7ZM455.66 12.3L441.56 11.7C440.893 11.7 438.693 15.7 434.96 23.7C431.227 31.6333 427.993 39.3333 425.26 46.8C422.527 54.2667 421.16 59.6667 421.16 63C421.16 66.2667 422.193 67.9 424.26 67.9C426.393 67.9 429.06 65.7333 432.26 61.4C432.593 61 432.927 60.8 433.26 60.8C433.593 60.8 433.76 61.1 433.76 61.7C433.76 62.3 433.293 63.4 432.36 65C431.493 66.6 430.327 68.3333 428.86 70.2C427.393 72 425.493 73.6 423.16 75C420.827 76.4667 418.427 77.2 415.96 77.2C412.293 77.2 410.46 74.6667 410.46 69.6C410.46 63.3333 413.627 52.6667 419.96 37.6C424.493 27 428.66 18.2 432.46 11.2H431.16L420.86 11C415.127 11 410.127 11.7333 405.86 13.2C403.527 14 401.66 15.2 400.26 16.8C398.927 18.3333 398.26 20.2 398.26 22.4L399.06 26.6C399.06 27.2667 398.727 27.6 398.06 27.6C397.193 27.6 396.493 26.7667 395.96 25.1C395.427 23.3667 395.16 21.8667 395.16 20.6C395.16 17.4667 395.893 14.8 397.36 12.6C398.827 10.4 400.827 8.73333 403.36 7.6C408.16 5.46666 413.46 4.4 419.26 4.4C425.06 4.4 431.627 4.76666 438.96 5.49999C446.293 6.16666 452.96 6.49999 458.96 6.49999C464.96 6.49999 468.86 5.56666 470.66 3.69999C470.86 4.16666 470.96 4.63333 470.96 5.09999C470.96 7.3 469.56 9.06667 466.76 10.4C463.96 11.6667 460.26 12.3 455.66 12.3ZM492.156 54.9C483.956 68.7 477.023 75.6 471.356 75.6C467.423 75.6 465.456 73.3333 465.456 68.8C465.456 63.5333 467.556 56.0333 471.756 46.3C472.69 43.8333 473.156 42.1333 473.156 41.2C473.156 39.8667 472.556 39.2 471.356 39.2C470.556 39.2 469.19 39.6667 467.256 40.6C465.39 41.5333 463.59 42.9 461.856 44.7C460.123 46.5 458.656 48.6 457.456 51C456.323 53.3333 455.39 55.3667 454.656 57.1C453.99 58.8333 453.29 60.9667 452.556 63.5C451.823 65.9667 451.156 68 450.556 69.6C450.023 71.1333 449.456 72.9333 448.856 75H439.156C440.956 70.4 443.523 63.0667 446.856 53C450.256 42.8667 453.156 34.9333 455.556 29.2C457.956 23.4 460.29 18.5333 462.556 14.6C464.89 10.6 467.523 7.26666 470.456 4.59999C473.456 1.93333 476.59 0.599998 479.856 0.599998C483.19 0.599998 484.856 2.16666 484.856 5.3C484.856 7.5 483.956 10.4 482.156 14C478.29 21.6 471.823 30.4 462.756 40.4C466.356 37.8 469.19 36.1 471.256 35.3C473.39 34.5 475.423 34.1 477.356 34.1C481.156 34.1 483.056 35.7667 483.056 39.1C483.056 40.4333 482.823 41.6667 482.356 42.8C481.89 43.9333 481.356 45.2333 480.756 46.7C480.223 48.1667 479.756 49.3667 479.356 50.3C479.023 51.2333 478.556 52.5 477.956 54.1C477.356 55.7 476.89 57.0667 476.556 58.2C475.69 61 475.256 63.2333 475.256 64.9C475.256 66.5667 475.823 67.4 476.956 67.4C480.956 67.4 485.956 61.6 491.956 50C492.156 49.5333 492.39 49.3 492.656 49.3C492.99 49.3 493.156 49.9333 493.156 51.2C493.156 52.4 492.823 53.6333 492.156 54.9ZM480.056 3.1C477.723 3.1 474.656 6.8 470.856 14.2C467.123 21.6 463.456 30.1 459.856 39.7C468.99 28.9667 475.223 20.1667 478.556 13.3C480.423 9.1 481.356 6.36666 481.356 5.09999C481.356 3.76666 480.923 3.1 480.056 3.1ZM528.604 49C529.004 49 529.204 49.6667 529.204 51C529.204 52.2667 528.671 53.8 527.604 55.6C526.537 57.4 525.471 59.1 524.404 60.7C523.404 62.3 522.037 64.1667 520.304 66.3C518.571 68.4333 516.871 70.1333 515.204 71.4C511.004 74.4667 506.771 76 502.504 76C498.304 76 494.904 74.9333 492.304 72.8C489.704 70.6 488.404 67.2667 488.404 62.8C488.404 56 490.904 49.7 495.904 43.9C500.904 38.1 506.737 35.2 513.404 35.2C516.404 35.2 518.804 36 520.604 37.6C522.404 39.1333 523.304 41 523.304 43.2C523.304 46.9333 521.537 49.9333 518.004 52.2C514.471 54.4667 510.304 55.6 505.504 55.6C502.704 55.6 500.637 55.2333 499.304 54.5C498.037 57.9 497.404 60.9 497.404 63.5C497.404 69.1 499.771 71.9 504.504 71.9C507.304 71.9 510.171 70.8333 513.104 68.7C516.104 66.5 518.637 64.0667 520.704 61.4C522.837 58.6667 525.237 54.7667 527.904 49.7C528.171 49.2333 528.404 49 528.604 49ZM518.004 41.1C518.004 39.1667 517.071 38.2 515.204 38.2C512.604 38.2 509.704 39.8 506.504 43C503.304 46.2 501.704 48.8 501.704 50.8C501.704 52.1333 502.971 52.8 505.504 52.8C508.037 52.8 510.671 51.5667 513.404 49.1C516.204 46.6333 517.737 43.9667 518.004 41.1ZM623.124 39.2C621.858 47.0667 618.891 53.9 614.224 59.7C609.558 65.5 603.891 69.8333 597.224 72.7C590.558 75.5667 583.324 77 575.524 77C561.058 77 553.824 73.3 553.824 65.9C553.824 57.9 560.891 39.9333 575.024 12C575.691 10.6667 576.191 9.73333 576.524 9.19999C571.258 9.6 565.891 10.7667 560.424 12.7C554.958 14.6333 551.391 17.0333 549.724 19.9C549.658 20.1 549.491 20.2 549.224 20.2C548.958 20.2 548.824 20.0333 548.824 19.7C548.824 19.3 548.858 19.0333 548.924 18.9C551.458 11.9667 556.091 7.73333 562.824 6.2C565.891 5.53333 569.991 5.2 575.124 5.2H595.624C605.091 5.2 612.124 7.76666 616.724 12.9C621.324 18.0333 623.624 24.5667 623.624 32.5C623.624 34.4333 623.458 36.6667 623.124 39.2ZM612.624 40C613.358 36.9333 613.724 34 613.724 31.2C613.724 24.7333 611.824 19.3667 608.024 15.1C605.891 12.7667 602.958 11.0667 599.224 10C595.558 8.86666 592.124 8.29999 588.924 8.29999C585.724 12.5 581.891 19.4333 577.424 29.1C573.024 38.7 569.458 47.7667 566.724 56.3C565.324 60.5 564.624 63.9 564.624 66.5C564.624 69.0333 565.291 70.7 566.624 71.5C567.958 72.3 570.324 72.7 573.724 72.7C582.991 72.7 591.258 69.6 598.524 63.4C605.791 57.1333 610.491 49.3333 612.624 40ZM666.32 35L671.32 35.1H672.32C670.12 36.9 667.42 41.4667 664.22 48.8C661.02 56.0667 659.42 61.3667 659.42 64.7C659.42 66.4333 660.02 67.3 661.22 67.3C665.087 67.3 670.02 61.6 676.02 50.2C676.287 49.7333 676.52 49.5 676.72 49.5C677.12 49.5 677.32 50.1333 677.32 51.4C677.32 52.6 676.987 53.7667 676.32 54.9C668.12 68.7 661.254 75.6 655.72 75.6C652.12 75.6 650.32 72.8333 650.32 67.3C650.32 63.1667 651.02 59.1 652.42 55.1C644.82 68.5667 637.787 75.3 631.32 75.3C626.854 75.3 624.62 72.2333 624.62 66.1C624.62 61.4333 625.62 56.7 627.62 51.9C629.687 47.1 632.62 43.0333 636.42 39.7C640.22 36.3 644.387 34.6 648.92 34.6C651.054 34.6 653.054 35.1 654.92 36.1C656.787 37.0333 658.02 38.5667 658.62 40.7C659.354 39.1667 660.487 37.8333 662.02 36.7C663.554 35.5667 664.987 35 666.32 35ZM658.02 41.6C657.354 39.4667 655.787 38.4 653.32 38.4C648.92 38.4 644.654 41.4667 640.52 47.6C636.387 53.6667 634.32 59.1 634.32 63.9C634.32 65.9667 635.12 67 636.72 67C638.454 67 640.487 65.9333 642.82 63.8C645.154 61.6 647.254 59.0333 649.12 56.1C653.254 49.5667 656.22 44.7333 658.02 41.6ZM713.086 36H717.186C715.119 37.2667 713.019 40.4 710.886 45.4C709.153 49.6 707.686 53.4333 706.486 56.9C705.286 60.3 704.553 62.3667 704.286 63.1C704.019 63.8333 703.386 65.6333 702.386 68.5C701.453 71.3 700.686 73.4667 700.086 75C698.419 79.6667 696.486 83.3667 694.286 86.1C692.086 88.8333 689.353 91 686.086 92.6C682.819 94.2667 679.519 95.1 676.186 95.1C672.853 95.1 670.019 94.4333 667.686 93.1C665.286 91.8333 664.086 89.8 664.086 87C664.086 85.5333 664.553 84.2 665.486 83C666.353 81.8667 667.386 81.3 668.586 81.3C669.719 81.3 670.686 81.5667 671.486 82.1C672.286 82.6333 672.853 83.2333 673.186 83.9C671.986 84.3 671.386 85.7 671.386 88.1C671.386 89.3667 671.819 90.3667 672.686 91.1C673.619 91.9 674.786 92.3 676.186 92.3C681.586 92.3 686.119 87.4667 689.786 77.8L695.486 62.6C692.353 66.5333 689.619 69.5 687.286 71.5C685.019 73.4333 683.219 74.6 681.886 75C680.619 75.4 679.086 75.6 677.286 75.6C675.553 75.6 674.153 74.9 673.086 73.5C672.019 72.0333 671.486 69.9333 671.486 67.2C671.553 64.4 672.353 60.4333 673.886 55.3C675.486 50.1667 677.219 46.1 679.086 43.1C681.019 40.1 682.986 38.1667 684.986 37.3C687.053 36.4333 689.853 36 693.386 36C693.653 36 693.786 36.1333 693.786 36.4C693.786 36.6667 693.586 37 693.186 37.4C690.453 39.8 687.653 44.1 684.786 50.3C681.986 56.5 680.586 61.7333 680.586 66C680.586 68.2667 681.219 69.4 682.486 69.4C684.886 69.4 687.953 67 691.686 62.2C695.419 57.4 698.286 52.6 700.286 47.8C700.553 47.1333 700.919 46.1667 701.386 44.9C701.919 43.6333 702.286 42.7667 702.486 42.3C702.686 41.8333 702.986 41.2 703.386 40.4C703.853 39.5333 704.253 38.9667 704.586 38.7C704.919 38.3667 705.353 37.9667 705.886 37.5C706.486 37.0333 707.086 36.7333 707.686 36.6C709.619 36.2 711.419 36 713.086 36Z" fill="black"/>
</svg>
