<svg width="925" height="268" viewBox="0 0 925 268" fill="none" xmlns="http://www.w3.org/2000/svg">
<path d="M135.159 10.4C156.859 10.4 172.376 13.9 181.709 20.9C191.043 27.9 195.709 36.4167 195.709 46.45C195.709 56.25 192.326 65.4667 185.559 74.1C179.026 82.5 169.809 86.7 157.909 86.7C146.009 86.7 140.059 81.6833 140.059 71.65C140.059 70.7167 140.293 68.85 140.759 66.05C147.059 66.05 152.543 63.6 157.209 58.7C161.876 53.8 164.209 48.4333 164.209 42.6C164.209 36.7667 161.409 31.9833 155.809 28.25C150.209 24.5167 143.443 22.65 135.509 22.65C121.976 22.65 110.776 26.7333 101.909 34.9C93.0427 43.0667 88.6094 52.6333 88.6094 63.6C88.6094 69.4333 90.7094 75.85 94.9094 82.85C99.1094 89.85 103.076 95.45 106.809 99.65C110.776 103.617 117.076 109.683 125.709 117.85C134.576 125.783 139.826 130.567 141.459 132.2C159.193 149.933 168.059 169.3 168.059 190.3C168.059 211.067 158.609 229.267 139.709 244.9C120.809 260.3 98.176 268 71.8094 268C50.3427 268 32.9594 264.5 19.6594 257.5C6.59271 250.5 0.0593754 239.533 0.0593754 224.6C0.0593754 216.433 2.74271 208.967 8.10938 202.2C13.476 195.433 21.0594 192.05 30.8594 192.05C40.8927 192.05 47.6594 195.55 51.1594 202.55C42.9927 209.083 38.9094 217.017 38.9094 226.35C38.9094 235.45 41.9427 242.567 48.0094 247.7C54.3094 252.6 62.476 255.05 72.5094 255.05C86.5094 255.05 98.7594 250.033 109.259 240C119.993 229.967 125.359 217.367 125.359 202.2C125.359 186.8 115.326 168.483 95.2594 147.25C95.026 146.783 90.9427 142.467 83.0094 134.3C75.076 125.9 68.426 117.383 63.0594 108.75C57.926 100.117 55.3594 89.85 55.3594 77.95C55.3594 57.65 63.2927 41.3167 79.1594 28.95C95.026 16.5833 113.693 10.4 135.159 10.4ZM353.458 190.65C344.825 205.117 336.892 217.25 329.658 227.05C322.658 236.617 314.608 245.017 305.508 252.25C296.408 259.483 288.125 263.1 280.658 263.1C266.892 263.1 260.008 255.517 260.008 240.35C260.008 225.183 268.758 194.733 286.258 149C287.192 146.9 287.658 144.683 287.658 142.35C287.658 137.45 284.508 135 278.208 135C272.142 135 266.075 136.983 260.008 140.95C254.175 144.683 248.808 150.167 243.908 157.4C239.008 164.4 234.575 171.633 230.608 179.1C226.642 186.333 222.908 194.733 219.408 204.3C216.142 213.867 213.458 221.917 211.358 228.45C209.492 234.75 207.508 241.633 205.408 249.1C203.542 256.333 202.492 260.3 202.258 261H168.308C168.308 256.1 178.575 227.983 199.108 176.65C207.508 152.617 211.708 135.817 211.708 126.25C211.708 123.917 211.358 122.167 210.658 121H225.358C233.525 121 238.775 121.817 241.108 123.45C243.442 125.083 244.608 127.3 244.608 130.1C244.608 132.9 243.325 138.617 240.758 147.25C260.358 128.583 280.075 119.25 299.908 119.25C313.208 119.25 319.858 125.317 319.858 137.45C319.858 141.417 319.275 145.383 318.108 149.35C316.942 153.317 314.025 161.25 309.358 173.15C299.092 199.283 293.958 216.783 293.958 225.65C293.958 231.25 296.058 234.05 300.258 234.05C303.292 234.05 307.492 231.95 312.858 227.75C318.458 223.55 323.008 219.233 326.508 214.8C330.242 210.133 334.208 204.417 338.408 197.65C342.842 190.65 346.575 184.583 349.608 179.45C352.642 174.317 354.392 171.75 354.858 171.75C356.258 171.75 356.958 173.967 356.958 178.4C356.958 182.6 355.792 186.683 353.458 190.65ZM483.85 121L501.35 121.35H504.85C497.15 127.65 487.7 143.633 476.5 169.3C465.3 194.733 459.7 213.283 459.7 224.95C459.7 231.017 461.8 234.05 466 234.05C479.533 234.05 496.8 214.1 517.8 174.2C518.733 172.567 519.55 171.75 520.25 171.75C521.65 171.75 522.35 173.967 522.35 178.4C522.35 182.6 521.183 186.683 518.85 190.65C490.15 238.95 466.116 263.1 446.75 263.1C434.15 263.1 427.85 253.417 427.85 234.05C427.85 219.583 430.3 205.35 435.2 191.35C408.6 238.483 383.983 262.05 361.35 262.05C345.716 262.05 337.9 251.317 337.9 229.85C337.9 213.517 341.4 196.95 348.4 180.15C355.633 163.35 365.9 149.117 379.2 137.45C392.5 125.55 407.083 119.6 422.95 119.6C430.416 119.6 437.416 121.35 443.95 124.85C450.483 128.117 454.8 133.483 456.9 140.95C459.466 135.583 463.433 130.917 468.8 126.95C474.166 122.983 479.183 121 483.85 121ZM454.8 144.1C452.466 136.633 446.983 132.9 438.35 132.9C422.95 132.9 408.016 143.633 393.55 165.1C379.083 186.333 371.85 205.35 371.85 222.15C371.85 229.383 374.65 233 380.25 233C386.316 233 393.433 229.267 401.6 221.8C409.766 214.1 417.116 205.117 423.65 194.85C438.116 171.983 448.5 155.067 454.8 144.1ZM645.429 171.4C646.829 171.4 647.529 173.617 647.529 178.05C647.529 182.483 645.546 187.967 641.579 194.5C637.846 201.033 634.813 206.05 632.479 209.55C630.379 212.817 626.646 218.183 621.279 225.65C615.913 233.117 611.246 238.483 607.279 241.75C603.313 245.017 598.296 248.867 592.229 253.3C581.963 260.767 568.546 264.5 551.979 264.5C535.646 264.5 523.746 260.417 516.279 252.25C509.046 243.85 505.429 233 505.429 219.7C505.429 195.2 514.063 172.8 531.329 152.5C548.829 131.967 569.363 121.7 592.929 121.7C603.429 121.7 611.829 124.5 618.129 130.1C624.429 135.467 627.579 142 627.579 149.7C627.579 157.167 625.479 163.7 621.279 169.3C617.079 174.9 612.296 177.7 606.929 177.7C596.429 177.7 591.179 173.383 591.179 164.75C591.179 161.95 594.096 159.267 599.929 156.7C602.263 155.767 604.363 154.017 606.229 151.45C608.096 148.883 609.029 145.5 609.029 141.3C609.029 135.233 605.763 132.2 599.229 132.2C585.229 132.2 571.346 142.35 557.579 162.65C543.813 182.95 536.929 202.667 536.929 221.8C536.929 240.7 545.213 250.15 561.779 250.15C584.879 250.15 607.396 232.3 629.329 196.6C633.763 189.6 637.379 183.65 640.179 178.75C643.213 173.85 644.963 171.4 645.429 171.4ZM787.669 191.35C779.502 205.117 771.219 217.6 762.819 228.8C744.852 252.133 727.119 263.8 709.619 263.8C700.052 263.8 692.819 259.017 687.919 249.45C683.252 239.883 680.919 229.267 680.919 217.6C680.919 194.267 684.419 182.6 691.419 182.6C702.385 182.6 712.535 180.15 721.869 175.25C731.202 170.117 735.869 163.467 735.869 155.3C735.869 148.767 732.135 145.5 724.669 145.5C708.569 145.5 690.719 163 671.119 198C669.252 201.5 665.285 209.667 659.219 222.5C653.385 235.1 648.135 244.667 643.469 251.2C639.035 257.733 634.602 261 630.169 261H608.819C616.052 247.467 626.669 220.167 640.669 179.1C654.902 137.8 665.402 110.15 672.169 96.15C672.402 95.6833 673.802 92.65 676.369 87.05C679.169 81.45 681.035 77.6 681.969 75.5C683.135 73.4 685.235 69.4333 688.269 63.6C691.302 57.7667 693.752 53.45 695.619 50.65C697.485 47.85 700.052 43.8833 703.319 38.75C706.585 33.3833 709.502 29.3 712.069 26.5C714.635 23.7 717.669 20.4333 721.169 16.7C724.669 12.7333 727.935 9.81665 730.969 7.94998C738.902 3.28332 746.135 0.949989 752.669 0.949989C765.502 0.949989 771.919 6.78332 771.919 18.45C771.919 34.7833 762.002 56.4833 742.169 83.55C722.569 110.383 700.402 135.817 675.669 159.85L669.369 177.35C680.569 162.883 693.285 150.283 707.519 139.55C721.752 128.583 734.819 123.1 746.719 123.1C753.485 123.1 758.735 124.733 762.469 128C766.435 131.267 768.419 135.7 768.419 141.3C768.419 154.133 762.702 164.517 751.269 172.45C740.069 180.15 727.119 185.167 712.419 187.5C714.519 211.767 717.902 226.583 722.569 231.95C724.902 234.517 727.819 235.8 731.319 235.8C734.819 235.8 739.602 233.7 745.669 229.5C751.735 225.3 756.635 220.75 760.369 215.85C764.335 210.717 768.419 204.65 772.619 197.65C777.052 190.65 780.785 184.583 783.819 179.45C787.085 174.317 788.952 171.75 789.419 171.75C790.819 171.75 791.519 174.083 791.519 178.75C791.519 183.183 790.235 187.383 787.669 191.35ZM753.369 10.05C740.302 10.05 717.435 52.05 684.769 136.05C714.635 101.05 735.635 71.5333 747.769 47.5C754.769 34.9 758.269 24.5167 758.269 16.35C758.269 12.15 756.635 10.05 753.369 10.05ZM920.715 189.95C903.215 219.117 887.349 239.417 873.115 250.85C858.882 262.283 840.449 268 817.815 268C804.749 268 793.782 265.55 784.915 260.65C776.049 255.517 771.615 248.05 771.615 238.25C771.615 232.65 773.249 227.517 776.515 222.85C779.782 218.183 784.215 215.85 789.815 215.85C795.649 215.85 799.382 217.95 801.015 222.15C796.582 226.583 794.365 231.717 794.365 237.55C794.365 249.217 800.899 255.05 813.965 255.05C821.665 255.05 828.315 252.367 833.915 247C839.749 241.633 842.665 235.8 842.665 229.5C842.665 222.967 841.265 217.25 838.465 212.35C835.665 207.45 832.282 203.133 828.315 199.4C824.349 195.667 820.382 191.933 816.415 188.2C806.849 179.1 802.065 168.717 802.065 157.05C802.065 145.15 806.499 135.233 815.365 127.3C824.465 119.133 836.832 115.05 852.465 115.05C862.265 115.05 870.549 116.8 877.315 120.3C884.082 123.8 887.465 129.283 887.465 136.75C887.465 143.983 885.249 150.283 880.815 155.65C876.382 161.017 870.315 163.7 862.615 163.7C855.149 163.7 851.415 160.2 851.415 153.2C851.415 151.567 854.099 149.117 859.465 145.85C864.832 142.583 867.515 139.2 867.515 135.7C867.515 132.2 865.999 129.633 862.965 128C860.165 126.133 856.082 125.2 850.715 125.2C845.349 125.2 840.099 127.067 834.965 130.8C830.065 134.533 827.615 139.433 827.615 145.5C827.615 151.567 830.182 157.283 835.315 162.65C840.449 168.017 846.049 172.567 852.115 176.3C858.182 180.033 863.782 185.283 868.915 192.05C874.049 198.583 876.615 205.583 876.615 213.05C876.615 220.283 874.865 226.817 871.365 232.65C868.099 238.483 864.132 243.15 859.465 246.65C872.532 241.05 886.415 227.05 901.115 204.65C902.515 202.783 904.965 198.933 908.465 193.1C916.632 178.4 921.182 171.05 922.115 171.05C923.515 171.05 924.215 173.267 924.215 177.7C924.215 181.9 923.049 185.983 920.715 189.95Z" fill="black"/>
</svg>
