<svg width="431" height="319" viewBox="0 0 431 319" fill="none" xmlns="http://www.w3.org/2000/svg">
<path d="M347.5 127.786L399.103 159L385.409 100.17L431 60.5874L370.964 55.4826L347.5 0L324.036 55.4826L264 60.5874L309.591 100.17L295.897 159L347.5 127.786Z" fill="#73EDFB"/>
<path d="M56.5 297.798L91.417 319L82.151 279.04L113 252.154L72.3765 248.686L56.5 211L40.6235 248.686L0 252.154L30.849 279.04L21.583 319L56.5 297.798Z" fill="#0C808D"/>
<path d="M209 238.694L252.26 265L240.78 215.42L279 182.061L228.67 177.759L209 131L189.33 177.759L139 182.061L177.22 215.42L165.74 265L209 238.694Z" fill="#2ABACA"/>
</svg>
