<svg width="40" height="56" viewBox="0 0 40 56" fill="none" xmlns="http://www.w3.org/2000/svg">
<path d="M28.5878 35.2201H26.781L26.1407 34.3556C28.3819 30.7055 29.7313 25.9668 29.7313 20.8119C29.7313 9.31733 23.076 0 14.8656 0C6.65523 0 0 9.31733 0 20.8119C0 32.3065 6.65523 41.6238 14.8656 41.6238C18.5477 41.6238 21.9325 39.7347 24.5397 36.5969L25.1572 37.4934V40.0229L36.5923 56L40 51.2293L28.5878 35.2201ZM14.8656 35.2201C9.17095 35.2201 4.57404 28.7845 4.57404 20.8119C4.57404 12.8393 9.17095 6.40366 14.8656 6.40366C20.5603 6.40366 25.1572 12.8393 25.1572 20.8119C25.1572 28.7845 20.5603 35.2201 14.8656 35.2201Z" fill="#007582"/>
</svg>
